<mxfile host="app.diagrams.net" modified="2023-04-18T14:49:36.296Z" agent="Mozilla/5.0 (Windows NT 10.0; Win64; x64) AppleWebKit/537.36 (KHTML, like Gecko) Chrome/112.0.0.0 Safari/537.36" etag="BRIozpsRFRx0Theroffv" version="21.1.8" type="github">
  <diagram name="Page-1" id="v1eGpcyweU-B9h9Gqm8P">
    <mxGraphModel dx="1140" dy="505" grid="1" gridSize="10" guides="1" tooltips="1" connect="1" arrows="1" fold="1" page="1" pageScale="1" pageWidth="827" pageHeight="1169" math="0" shadow="0">
      <root>
        <mxCell id="0" />
        <mxCell id="1" parent="0" />
        <mxCell id="RGoPA0G1iv3lJZE6mUUt-6" style="edgeStyle=orthogonalEdgeStyle;rounded=0;orthogonalLoop=1;jettySize=auto;html=1;exitX=0.5;exitY=1;exitDx=0;exitDy=0;entryX=0.5;entryY=0;entryDx=0;entryDy=0;" edge="1" parent="1" source="RGoPA0G1iv3lJZE6mUUt-2" target="RGoPA0G1iv3lJZE6mUUt-3">
          <mxGeometry relative="1" as="geometry" />
        </mxCell>
        <mxCell id="RGoPA0G1iv3lJZE6mUUt-2" value="Preparation" style="rounded=1;whiteSpace=wrap;html=1;fillColor=#d5e8d4;strokeColor=#82b366;" vertex="1" parent="1">
          <mxGeometry x="80" y="40" width="120" height="80" as="geometry" />
        </mxCell>
        <mxCell id="RGoPA0G1iv3lJZE6mUUt-8" style="edgeStyle=orthogonalEdgeStyle;rounded=0;orthogonalLoop=1;jettySize=auto;html=1;exitX=0.5;exitY=1;exitDx=0;exitDy=0;entryX=0.5;entryY=0;entryDx=0;entryDy=0;" edge="1" parent="1" source="RGoPA0G1iv3lJZE6mUUt-3" target="RGoPA0G1iv3lJZE6mUUt-7">
          <mxGeometry relative="1" as="geometry" />
        </mxCell>
        <mxCell id="RGoPA0G1iv3lJZE6mUUt-3" value="Create program that fetches API-data and writes it into file." style="rounded=1;whiteSpace=wrap;html=1;fillColor=#d5e8d4;strokeColor=#82b366;" vertex="1" parent="1">
          <mxGeometry x="360" y="40" width="120" height="80" as="geometry" />
        </mxCell>
        <mxCell id="RGoPA0G1iv3lJZE6mUUt-17" style="edgeStyle=orthogonalEdgeStyle;rounded=0;orthogonalLoop=1;jettySize=auto;html=1;exitX=0.5;exitY=1;exitDx=0;exitDy=0;entryX=0.5;entryY=0;entryDx=0;entryDy=0;" edge="1" parent="1" source="RGoPA0G1iv3lJZE6mUUt-7" target="RGoPA0G1iv3lJZE6mUUt-13">
          <mxGeometry relative="1" as="geometry" />
        </mxCell>
        <mxCell id="RGoPA0G1iv3lJZE6mUUt-7" value="Get latest data from API and update file.&amp;nbsp;" style="rounded=1;whiteSpace=wrap;html=1;fillColor=#d5e8d4;strokeColor=#82b366;" vertex="1" parent="1">
          <mxGeometry x="640" y="40" width="120" height="80" as="geometry" />
        </mxCell>
        <mxCell id="RGoPA0G1iv3lJZE6mUUt-19" style="edgeStyle=orthogonalEdgeStyle;rounded=0;orthogonalLoop=1;jettySize=auto;html=1;exitX=0.5;exitY=1;exitDx=0;exitDy=0;" edge="1" parent="1" source="RGoPA0G1iv3lJZE6mUUt-13" target="RGoPA0G1iv3lJZE6mUUt-18">
          <mxGeometry relative="1" as="geometry" />
        </mxCell>
        <mxCell id="RGoPA0G1iv3lJZE6mUUt-13" value="Create suitable datastructure for the API-data." style="rounded=1;whiteSpace=wrap;html=1;fillColor=#d5e8d4;strokeColor=#82b366;" vertex="1" parent="1">
          <mxGeometry x="640" y="200" width="120" height="80" as="geometry" />
        </mxCell>
        <mxCell id="RGoPA0G1iv3lJZE6mUUt-21" style="edgeStyle=orthogonalEdgeStyle;rounded=0;orthogonalLoop=1;jettySize=auto;html=1;exitX=0.5;exitY=1;exitDx=0;exitDy=0;entryX=0.5;entryY=0;entryDx=0;entryDy=0;" edge="1" parent="1" source="RGoPA0G1iv3lJZE6mUUt-18" target="RGoPA0G1iv3lJZE6mUUt-20">
          <mxGeometry relative="1" as="geometry" />
        </mxCell>
        <mxCell id="RGoPA0G1iv3lJZE6mUUt-18" value="Create program that scrapes extensive summary of specific event." style="rounded=1;whiteSpace=wrap;html=1;fillColor=#d5e8d4;strokeColor=#82b366;" vertex="1" parent="1">
          <mxGeometry x="360" y="200" width="120" height="80" as="geometry" />
        </mxCell>
        <mxCell id="RGoPA0G1iv3lJZE6mUUt-23" style="edgeStyle=orthogonalEdgeStyle;rounded=0;orthogonalLoop=1;jettySize=auto;html=1;exitX=0.5;exitY=1;exitDx=0;exitDy=0;entryX=0.5;entryY=0;entryDx=0;entryDy=0;" edge="1" parent="1" source="RGoPA0G1iv3lJZE6mUUt-20" target="RGoPA0G1iv3lJZE6mUUt-22">
          <mxGeometry relative="1" as="geometry" />
        </mxCell>
        <mxCell id="RGoPA0G1iv3lJZE6mUUt-20" value="Create a basic terminal program&amp;nbsp;" style="rounded=1;whiteSpace=wrap;html=1;fillColor=#d5e8d4;strokeColor=#82b366;" vertex="1" parent="1">
          <mxGeometry x="80" y="200" width="120" height="80" as="geometry" />
        </mxCell>
        <mxCell id="RGoPA0G1iv3lJZE6mUUt-25" style="edgeStyle=orthogonalEdgeStyle;rounded=0;orthogonalLoop=1;jettySize=auto;html=1;exitX=1;exitY=0.5;exitDx=0;exitDy=0;" edge="1" parent="1" source="RGoPA0G1iv3lJZE6mUUt-22" target="RGoPA0G1iv3lJZE6mUUt-24">
          <mxGeometry relative="1" as="geometry" />
        </mxCell>
        <mxCell id="RGoPA0G1iv3lJZE6mUUt-22" value="Create a GUI&lt;br&gt;" style="rounded=1;whiteSpace=wrap;html=1;fillColor=#d5e8d4;strokeColor=#82b366;" vertex="1" parent="1">
          <mxGeometry x="80" y="360" width="120" height="80" as="geometry" />
        </mxCell>
        <mxCell id="RGoPA0G1iv3lJZE6mUUt-24" value="Present project" style="rounded=1;whiteSpace=wrap;html=1;fillColor=#d5e8d4;strokeColor=#82b366;" vertex="1" parent="1">
          <mxGeometry x="360" y="360" width="120" height="80" as="geometry" />
        </mxCell>
      </root>
    </mxGraphModel>
  </diagram>
</mxfile>
